# Blender v2.90.1 OBJ File: 'blocked.blend'
# www.blender.org
mtllib demo2.mtl
o Plane
v 4.000000 0.000000 2.000000
v -2.000000 0.000000 -4.000000
v -2.000000 0.000000 -5.000000
v 4.000000 0.000000 4.000000
v -2.000000 4.000000 -4.000000
v -2.000000 4.000000 -5.000000
v -2.000000 2.000000 4.000000
v 4.000000 4.000000 2.000000
v 4.000000 4.000000 -13.000000
v 4.000000 4.000000 4.000000
v -4.000000 1.000000 -11.000000
v 4.000000 1.000000 -11.000000
v 4.000000 4.000000 -11.000000
v -6.000000 1.000000 -13.000000
v -4.000000 1.000000 -9.000000
v -6.000000 1.000000 -9.000000
v -4.000000 0.000000 -7.000000
v -6.000000 0.000000 -7.000000
v 2.000000 0.000000 -4.000000
v 2.000000 0.000000 -7.000000
v 4.000000 0.000000 -7.000000
v 4.000000 0.000000 -5.000000
v 4.000000 4.000000 -5.000000
v 2.000000 -1.000000 -9.000000
v 4.000000 -1.000000 -9.000000
v 4.000000 -1.000000 -11.000000
v -4.000000 -1.000000 -11.000000
v -4.000000 -1.000000 -7.000000
v 2.000000 -1.000000 -7.000000
v -2.000000 2.000000 -4.000000
v -2.000000 1.000000 -4.000000
v -4.000000 1.000000 -4.000000
v -4.000000 -1.000000 -4.000000
v 2.000000 0.000000 0.000000
v 0.000000 -1.000000 -4.000000
v 0.000000 -1.000000 0.000000
v -2.000000 2.000000 2.000000
v -2.000000 1.000000 2.000000
v -4.000000 1.000000 2.000000
v -6.000000 2.000000 -5.000000
v -6.000000 4.000000 -5.000000
v 2.000000 0.000000 2.000000
v 2.000000 0.000000 4.000000
v 2.000000 -1.000000 2.000000
v 2.000000 -1.000000 0.000000
v -4.000000 -1.000000 2.000000
v -6.000000 2.000000 4.000000
v -6.000000 2.000000 0.000000
v -6.000000 4.000000 -13.000000
v -6.000000 2.000000 -7.000000
v -6.000000 4.000000 4.000000
v -6.000000 4.000000 0.000000
v -9.000000 2.000000 -4.000000
v -9.000000 2.000000 0.000000
v -9.000000 4.000000 0.000000
v -7.000000 2.000000 -4.000000
v -7.000000 4.000000 -4.000000
v -9.000000 1.000000 -5.000000
v -7.000000 1.000000 -5.000000
v -9.000000 0.000000 -5.000000
v -9.000000 0.000000 -7.000000
v -7.000000 2.000000 -5.000000
v -7.000000 2.000000 -7.000000
v -7.000000 4.000000 -5.000000
v -9.000000 4.000000 -5.000000
v -7.000000 5.000000 -5.000000
v -7.000000 5.000000 -7.000000
v -9.000000 5.000000 -7.000000
v -9.000000 5.000000 -5.000000
v 7.000000 0.000000 -5.000000
v 9.000000 4.000000 2.000000
v 9.000000 0.000000 2.000000
v 9.000000 4.000000 -5.000000
v 7.000000 2.000000 -5.000000
v 9.000000 2.000000 -5.000000
v 5.000000 1.000000 -13.000000
v 5.000000 4.000000 -13.000000
v 5.000000 1.000000 -11.000000
v 5.000000 4.000000 -11.000000
v 7.000000 0.000000 -6.000000
v 9.000000 0.000000 -6.000000
v 7.000000 2.000000 -6.000000
v 9.000000 2.000000 -6.000000
v 7.000000 0.000000 -8.000000
v 9.000000 0.000000 -8.000000
v 7.000000 1.000000 -11.000000
v 9.000000 1.000000 -11.000000
v 9.000000 1.000000 -13.000000
v 5.000000 6.000000 -6.000000
v 5.000000 6.000000 -14.000000
v 10.000000 6.000000 -6.000000
v 7.000000 -1.000000 -6.000000
v 5.000000 -1.000000 -11.000000
v 7.000000 -1.000000 -11.000000
v 9.000000 -1.000000 -6.000000
v 9.000000 -1.000000 -13.000000
v 5.000000 -1.000000 -13.000000
v 7.000000 -3.000000 -6.000000
v 5.000000 -3.000000 -6.000000
v 5.000000 -3.000000 -11.000000
v 9.000000 -3.000000 -6.000000
v 5.000000 -3.000000 -13.000000
v 5.000000 -3.000000 -14.000000
v 10.000000 -3.000000 -6.000000
v -9.000000 4.000000 -7.000000
v -9.000000 2.000000 -7.000000
v -9.000000 2.000000 -5.000000
v -7.000000 0.000000 -5.000000
v -6.000000 0.000000 -5.000000
v -7.000000 0.000000 -7.000000
v -7.000000 4.000000 -7.000000
v -2.000000 2.000000 0.000000
v 4.000000 0.000000 -5.000000
v 4.000000 0.000000 -7.000000
v 2.000000 0.000000 -4.000000
v 2.000000 0.000000 -5.000000
v 9.000000 0.000000 -5.000000
v -4.000000 -1.000000 0.000000
v -2.000000 -1.000000 2.000000
v 4.000000 2.000000 4.000000
v 4.000000 0.000000 -11.000000
v 2.000000 -1.000000 -11.000000
v -6.000000 4.000000 -7.000000
v -4.000000 0.000000 -4.000000
v 7.000000 4.000000 -5.000000
v 5.000000 2.000000 -6.000000
v 10.000000 2.000000 -6.000000
v 5.000000 4.000000 -6.000000
v 5.000000 4.000000 -14.000000
v -6.000000 4.000000 -9.000000
v -4.000000 -1.000000 -9.000000
v -4.000000 1.000000 -13.000000
v -6.000000 1.000000 -13.000000
v -4.000000 1.000000 -11.000000
v -4.000000 1.000000 -13.000000
v 9.000000 0.000000 -13.000000
v 9.000000 -1.000000 -13.000000
v 7.000000 0.000000 -8.000000
v 7.000000 -1.000000 -8.000000
v -2.000000 4.000000 4.000000
v -6.000000 4.000000 -4.000000
v -9.000000 4.000000 -4.000000
vt 4.000000 2.000000
vt 1.000000 1.000000
vt 4.000000 1.000000
vt 4.000000 -0.000000
vt 2.000000 1.000000
vt 2.000000 -0.000000
vt 0.000000 6.500000
vt 1.000000 5.500000
vt 1.000000 6.500000
vt 5.000000 5.500000
vt 4.000000 6.500000
vt 4.000000 5.500000
vt 4.000000 4.000000
vt 3.000000 2.000000
vt 4.000000 2.000000
vt 1.000000 2.000000
vt 3.000000 4.000000
vt 1.000000 4.000000
vt -0.500000 4.000000
vt -1.500000 4.500000
vt -1.500000 4.000000
vt -0.500000 5.500000
vt 0.000000 4.500000
vt 0.000000 5.500000
vt -1.500000 4.500000
vt 5.000000 5.500000
vt -1.500000 5.500000
vt 7.500000 5.000000
vt 6.500000 4.500000
vt 7.500000 4.500000
vt 7.500000 6.000000
vt 6.500000 7.500000
vt 6.500000 6.000000
vt 0.000000 8.500000
vt 2.000000 2.000000
vt 0.000000 -0.000000
vt -1.500000 2.000000
vt 2.000000 4.000000
vt 2.000000 4.000000
vt 4.000000 4.500000
vt 2.000000 4.500000
vt 5.000000 -0.000000
vt 5.000000 4.500000
vt 7.500000 1.000000
vt 7.500000 4.500000
vt 6.500000 4.500000
vt 5.000000 7.500000
vt 4.000000 7.500000
vt 4.000000 5.500000
vt 1.000000 7.500000
vt 1.000000 5.500000
vt 7.500000 8.500000
vt 1.000000 7.500000
vt 7.500000 7.500000
vt 4.000000 1.000000
vt 0.000000 5.500000
vt 5.000000 6.500000
vt -0.500000 4.500000
vt -0.500000 4.500000
vt 6.500000 5.000000
vt 1.000000 8.500000
vt 0.000000 2.000000
vt 4.000000 4.000000
vt 5.000000 1.000000
vt 1.000000 8.500000
vt 6.500000 0.500000
vt 5.500000 0.000000
vt 4.500000 0.500000
vt -0.783203 0.500000
vt 0.216797 1.000000
vt 0.216797 0.500000
vt 4.500000 0.500000
vt 5.500000 0.000000
vt 4.500000 0.000000
vt 3.500000 2.500000
vt 6.500000 2.500000
vt 1.716797 1.000000
vt 5.716797 0.000000
vt 5.716797 1.000000
vt 1.000000 1.500000
vt -1.000000 2.500000
vt -1.000000 1.500000
vt 2.716797 2.500000
vt 0.216797 1.500000
vt 2.716797 1.500000
vt 3.000000 0.000000
vt 0.000000 1.000000
vt 0.000000 0.000000
vt 3.716797 0.000000
vt 4.716797 0.000000
vt 4.716797 0.500000
vt 1.000000 0.000000
vt 0.000000 0.500000
vt 1.000000 0.500000
vt 3.716797 0.000000
vt 1.716797 0.500000
vt 1.716797 0.000000
vt 6.216797 2.500000
vt 0.716797 1.000000
vt 6.216797 1.000000
vt 4.716797 0.500000
vt 1.716797 0.000000
vt 1.716797 0.500000
vt -0.783203 2.500000
vt 0.716797 1.500000
vt -0.783203 1.500000
vt 3.500000 1.000000
vt 3.000000 1.500000
vt 3.500000 1.500000
vt 3.000000 1.000000
vt 0.000000 1.500000
vt 0.000000 1.000000
vt 0.216797 3.000000
vt -0.783203 2.500000
vt -0.783203 3.000000
vt 0.000000 2.500000
vt -1.000000 0.500000
vt -1.000000 2.500000
vt 0.000000 2.500000
vt 3.500000 0.500000
vt 0.000000 0.500000
vt 8.216797 0.500000
vt 5.716797 2.500000
vt 8.216797 2.500000
vt 1.716797 0.000000
vt 2.716797 1.000000
vt 2.716797 0.000000
vt 6.216797 1.000000
vt 7.216797 0.000000
vt 7.216797 1.000000
vt 4.000000 1.500000
vt 3.500000 0.500000
vt 3.500000 1.500000
vt 5.000000 0.500000
vt 4.000000 0.000000
vt 4.000000 0.500000
vt 4.000000 0.000000
vt 7.500000 0.500000
vt 4.000000 0.500000
vt 6.500000 0.000000
vt 5.500000 1.000000
vt 5.500000 0.000000
vt 6.216797 2.500000
vt 8.216797 0.000000
vt 8.216797 1.000000
vt 4.000000 3.500000
vt 8.000000 2.500000
vt 8.000000 3.500000
vt 8.216797 0.000000
vt 7.216797 -1.000000
vt 7.216797 0.000000
vt 6.500000 0.000000
vt 7.500000 -1.000000
vt 7.500000 0.000000
vt 8.716797 3.500000
vt 6.216797 1.500000
vt 6.216797 3.500000
vt 4.500000 3.000000
vt 3.500000 2.500000
vt 4.500000 2.500000
vt 1.000000 1.500000
vt 4.500000 1.500000
vt 3.500000 0.500000
vt 3.500000 1.500000
vt 3.500000 1.000000
vt 3.000000 1.500000
vt 0.716797 1.500000
vt 0.716797 0.500000
vt 2.716797 0.500000
vt 0.716797 2.500000
vt 2.716797 2.500000
vt 0.716797 0.500000
vt 0.216797 1.500000
vt 0.216797 0.500000
vt -0.783203 0.500000
vt 0.216797 3.000000
vt -0.783203 3.000000
vt 4.500000 2.500000
vt 3.000000 2.500000
vt 4.500000 3.000000
vt 3.500000 2.500000
vt 3.500000 3.000000
vt 3.000000 2.500000
vt 3.500000 0.500000
vt 3.500000 2.500000
vt 4.716797 0.500000
vt 5.716797 1.500000
vt 5.716797 0.500000
vt 5.716797 2.500000
vt 0.716797 1.500000
vt 0.716797 2.500000
vt 4.716797 0.500000
vt 2.716797 1.500000
vt 3.500000 1.500000
vt 4.000000 1.500000
vt 3.500000 1.500000
vt 4.500000 2.500000
vt 4.500000 1.500000
vt 1.716797 1.000000
vt 2.716797 0.500000
vt 2.716797 1.000000
vt 7.216797 1.500000
vt 8.216797 2.500000
vt 7.216797 2.500000
vt 7.216797 0.500000
vt 5.716797 2.500000
vt 5.716797 0.500000
vt 5.500000 1.000000
vt 5.500000 2.500000
vt 8.000000 -1.000000
vt 7.500000 2.500000
vt 6.500000 2.500000
vt 4.000000 -1.000000
vt 6.500000 -1.000000
vt 6.216797 -1.000000
vt 7.216797 1.500000
vt 8.216797 1.500000
vt 8.716797 -1.000000
vt 8.216797 -1.000000
vt 7.500000 1.000000
vt 4.500000 0.500000
vt 6.500000 1.000000
vt 7.500000 1.000000
vt 6.500000 0.000000
vt 5.000000 0.000000
vt 6.500000 0.000000
vt -0.783203 1.000000
vt 3.500000 0.500000
vt 1.716797 0.000000
vt 1.000000 2.500000
vt 0.216797 2.500000
vt 3.000000 1.000000
vt 0.000000 0.000000
vt 4.716797 0.500000
vt 0.716797 2.500000
vt 4.716797 0.000000
vt 0.716797 2.500000
vt 3.000000 1.500000
vt 0.216797 2.500000
vt 0.000000 0.500000
vt 3.500000 2.500000
vt 5.716797 0.500000
vt 1.716797 1.000000
vt 6.216797 0.000000
vt 7.500000 0.000000
vt 6.500000 1.000000
vt 5.716797 2.500000
vt 6.216797 0.000000
vt 4.000000 2.500000
vt 8.716797 1.500000
vt 3.500000 3.000000
vt 1.000000 2.500000
vt 4.500000 0.500000
vt 0.216797 1.500000
vt 0.716797 1.500000
vt 4.500000 1.500000
vt 3.000000 0.500000
vt 2.716797 1.500000
vt 4.716797 0.000000
vt 3.500000 2.500000
vt 8.216797 1.500000
vt 4.500000 0.500000
vt 7.500000 2.500000
vt 4.500000 0.000000
vt 5.000000 0.500000
vt 6.500000 1.000000
vt 2.000000 1.000000
vt 1.000000 4.000000
vt 2.000000 4.000000
vt 5.500000 7.500000
vt 5.000000 8.500000
vt 5.000000 7.500000
vt 0.000000 4.500000
vt 5.000000 4.500000
vt 5.000000 1.000000
vt 7.500000 4.500000
vt 7.500000 1.000000
vt 2.000000 -0.000000
vt 5.000000 -0.000000
vt 0.000000 -0.000000
vt 2.000000 4.000000
vt 0.000000 4.000000
vt -1.500000 2.000000
vt -1.500000 4.000000
vt -0.500000 4.000000
vt -1.500000 4.500000
vt -0.500000 4.500000
vt 1.000000 1.000000
vt 5.500000 8.500000
vt 0.000000 8.500000
vt 2.000000 4.500000
vt 0.000000 2.000000
vn 0.0000 1.0000 0.0000
vn 0.4472 0.8944 0.0000
vn 0.0000 0.8944 0.4472
vn 0.0000 0.8944 -0.4472
vn -0.4472 0.8944 0.0000
vn 0.0000 0.7071 -0.7071
vn 0.0000 0.9487 0.3162
vn -1.0000 0.0000 0.0000
vn 0.0000 0.0000 -1.0000
vn 0.0000 0.0000 1.0000
vn 1.0000 0.0000 0.0000
vn 0.0000 -1.0000 0.0000
usemtl floor
s off
f 45/1/1 46/2/1 44/3/1
f 43/4/2 37/5/2 7/6/2
f 16/7/3 17/8/3 15/9/3
f 21/10/4 24/11/4 20/12/4
f 19/13/5 36/14/5 34/15/5
f 118/16/1 35/17/1 33/18/1
f 56/19/6 58/20/6 53/21/6
f 63/22/1 40/23/1 50/24/1
f 60/25/1 114/26/1 61/27/1
f 83/28/1 74/29/1 75/30/1
f 85/31/7 86/32/7 84/33/7
f 15/9/1 133/34/1 16/7/1
f 112/35/1 47/36/1 7/6/1
f 54/37/1 30/38/1 53/21/1
f 2/39/1 116/40/1 3/41/1
f 4/42/1 116/40/1 43/4/1
f 113/43/1 72/44/1 117/45/1
f 70/46/1 85/31/1 84/33/1
f 24/11/1 26/47/1 122/48/1
f 29/49/1 27/50/1 28/51/1
f 88/52/1 134/53/1 87/54/1
f 45/1/1 118/16/1 46/2/1
f 43/4/2 42/55/2 37/5/2
f 16/7/3 18/56/3 17/8/3
f 21/10/4 25/57/4 24/11/4
f 19/13/5 35/17/5 36/14/5
f 118/16/1 36/14/1 35/17/1
f 56/19/6 59/58/6 58/20/6
f 63/22/1 62/59/1 40/23/1
f 60/25/1 113/43/1 114/26/1
f 83/28/1 82/60/1 74/29/1
f 85/31/7 87/54/7 86/32/7
f 15/9/1 132/61/1 133/34/1
f 112/35/1 48/62/1 47/36/1
f 54/37/1 112/35/1 30/38/1
f 2/39/1 115/63/1 116/40/1
f 4/42/1 113/43/1 116/40/1
f 113/43/1 1/64/1 72/44/1
f 70/46/1 117/45/1 85/31/1
f 24/11/1 25/57/1 26/47/1
f 29/49/1 122/48/1 27/50/1
f 88/52/1 135/65/1 134/53/1
usemtl wall
f 121/66/8 25/67/8 114/68/8
f 60/69/9 59/70/9 108/71/9
f 20/72/8 24/73/8 29/74/8
f 121/66/8 23/75/8 13/76/8
f 11/77/10 26/78/10 12/79/10
f 48/80/11 51/81/11 47/82/11
f 5/83/10 56/84/10 30/85/10
f 33/86/11 39/87/11 46/88/11
f 36/89/10 45/90/10 34/91/10
f 45/92/8 42/93/8 34/94/8
f 35/95/10 124/96/10 33/97/10
f 77/98/10 14/99/10 76/100/10
f 20/101/9 28/102/9 17/103/9
f 55/104/9 48/105/9 54/106/9
f 59/107/8 56/108/8 62/109/8
f 31/110/11 37/111/11 38/112/11
f 66/113/9 65/114/9 69/115/9
f 8/116/8 4/117/8 10/118/8
f 71/119/8 117/120/8 72/121/8
f 72/122/9 8/123/9 71/124/9
f 46/125/9 38/126/9 119/127/9
f 78/128/10 94/129/10 86/130/10
f 82/131/8 70/132/8 74/133/8
f 138/134/8 92/135/8 80/136/8
f 95/137/11 136/138/11 81/139/11
f 27/140/11 15/141/11 131/142/11
f 12/79/9 79/143/9 78/128/9
f 96/144/9 76/100/9 88/145/9
f 89/146/11 129/147/11 90/148/11
f 95/149/9 98/150/9 92/151/9
f 93/152/11 102/153/11 97/154/11
f 91/155/9 126/156/9 89/157/9
f 68/158/11 65/159/11 105/160/11
f 105/160/11 54/161/11 106/162/11
f 60/163/11 106/162/11 107/164/11
f 58/165/11 107/164/11 53/166/11
f 108/71/9 40/167/9 109/168/9
f 3/169/9 41/170/9 6/171/9
f 18/172/10 63/173/10 110/174/10
f 61/175/10 67/176/10 68/177/10
f 111/178/8 56/108/8 57/179/8
f 67/180/8 64/181/8 66/182/8
f 5/183/11 3/184/11 6/185/11
f 43/186/9 120/187/9 4/188/9
f 10/189/9 47/190/9 51/191/9
f 42/192/9 119/127/9 37/193/9
f 75/194/11 81/139/11 83/195/11
f 40/196/8 123/197/8 50/198/8
f 32/199/10 2/200/10 31/201/10
f 74/202/10 73/203/10 125/204/10
f 70/205/10 23/206/10 113/207/10
f 123/197/11 16/208/11 130/209/11
f 103/210/11 77/211/11 102/153/11
f 79/212/11 99/213/11 100/214/11
f 99/215/9 82/216/9 98/150/9
f 83/217/9 104/218/9 101/219/9
f 14/220/11 130/209/11 16/208/11
f 17/221/11 131/142/11 15/141/11
f 87/222/11 136/138/11 88/223/11
f 138/134/8 94/224/8 139/225/8
f 121/66/8 26/226/8 25/67/8
f 60/69/9 58/227/9 59/70/9
f 121/66/8 113/228/8 23/75/8
f 11/77/10 27/229/10 26/78/10
f 48/80/11 52/230/11 51/81/11
f 5/83/10 57/231/10 56/84/10
f 33/86/11 32/232/11 39/87/11
f 45/92/8 44/233/8 42/93/8
f 35/95/10 115/234/10 124/96/10
f 77/98/10 49/235/10 14/99/10
f 20/101/9 29/236/9 28/102/9
f 55/104/9 52/237/9 48/105/9
f 31/110/11 30/238/11 37/111/11
f 66/113/9 64/239/9 65/114/9
f 8/116/8 1/240/8 4/117/8
f 71/119/8 73/241/8 117/120/8
f 72/122/9 1/242/9 8/123/9
f 46/125/9 39/243/9 38/126/9
f 78/128/10 93/244/10 94/129/10
f 82/131/8 80/136/8 70/132/8
f 138/134/8 139/225/8 92/135/8
f 95/137/11 137/245/11 136/138/11
f 27/140/11 11/246/11 15/141/11
f 12/79/9 13/247/9 79/143/9
f 96/144/9 97/248/9 76/100/9
f 89/146/11 128/249/11 129/147/11
f 95/149/9 101/219/9 98/150/9
f 93/152/11 100/214/11 102/153/11
f 91/155/9 127/250/9 126/156/9
f 68/158/11 69/251/11 65/159/11
f 105/160/11 55/252/11 54/161/11
f 60/163/11 61/253/11 106/162/11
f 108/71/9 62/254/9 40/167/9
f 3/169/9 109/168/9 41/170/9
f 18/172/10 50/255/10 63/173/10
f 61/175/10 110/174/10 67/176/10
f 111/178/8 63/256/8 56/108/8
f 67/180/8 111/178/8 64/181/8
f 5/183/11 2/257/11 3/184/11
f 43/186/9 7/258/9 120/187/9
f 10/189/9 120/187/9 47/190/9
f 42/192/9 44/259/9 119/127/9
f 75/194/11 117/120/11 81/139/11
f 40/196/8 41/260/8 123/197/8
f 32/199/10 124/96/10 2/200/10
f 74/202/10 75/261/10 73/203/10
f 70/205/10 125/204/10 23/206/10
f 123/197/11 18/262/11 16/208/11
f 103/210/11 129/147/11 77/211/11
f 79/212/11 128/249/11 99/213/11
f 99/215/9 126/156/9 82/216/9
f 83/217/9 127/250/9 104/218/9
f 14/220/11 49/263/11 130/209/11
f 17/221/11 28/264/11 131/142/11
f 87/222/11 85/265/11 136/138/11
f 138/134/8 86/266/8 94/224/8
usemtl ceiling
f 38/267/12 32/268/12 31/269/12
f 79/270/1 9/271/1 13/272/1
f 41/273/12 9/271/12 23/274/12
f 8/275/12 73/276/12 71/277/12
f 140/278/12 23/274/12 10/279/12
f 51/280/12 5/281/12 140/278/12
f 141/282/12 55/283/12 142/284/12
f 57/285/12 65/286/12 64/287/12
f 38/267/12 39/288/12 32/268/12
f 79/270/1 77/289/1 9/271/1
f 41/273/12 49/290/12 9/271/12
f 8/275/12 23/274/12 73/276/12
f 140/278/12 6/291/12 23/274/12
f 51/280/12 141/282/12 5/281/12
f 141/282/12 52/292/12 55/283/12
f 57/285/12 142/284/12 65/286/12
