<?xml version="1.0" encoding="UTF-8" standalone="no"?>
<!DOCTYPE svg PUBLIC "-//W3C//DTD SVG 1.1//EN"
 "http://www.w3.org/Graphics/SVG/1.1/DTD/svg11.dtd">
<!-- Generated by graphviz version 2.44.1 (0)
 -->
<!-- Pages: 1 -->
<svg width="1006pt" height="301pt"
 viewBox="0.00 0.00 1006.00 300.67" xmlns="http://www.w3.org/2000/svg" xmlns:xlink="http://www.w3.org/1999/xlink">
<g id="graph0" class="graph" transform="scale(1 1) rotate(0) translate(4 296.67)">
<polygon fill="white" stroke="transparent" points="-4,4 -4,-296.67 1002,-296.67 1002,4 -4,4"/>
<!-- init -->
<g id="node1" class="node">
<title>init</title>
</g>
<!-- splash -->
<g id="node2" class="node">
<title>splash</title>
<polygon fill="none" stroke="black" points="179,-184.67 90,-184.67 90,-148.67 179,-148.67 179,-184.67"/>
<text text-anchor="middle" x="134.5" y="-162.97" font-family="Times,serif" font-size="14.00">[Z] Splash</text>
</g>
<!-- init&#45;&gt;splash -->
<g id="edge1" class="edge">
<title>init&#45;&gt;splash</title>
<path fill="none" stroke="black" d="M54.08,-166.67C61.88,-166.67 70.74,-166.67 79.64,-166.67"/>
<polygon fill="black" stroke="black" points="79.66,-170.17 89.66,-166.67 79.66,-163.17 79.66,-170.17"/>
</g>
<!-- mainmenu -->
<g id="node11" class="node">
<title>mainmenu</title>
<polygon fill="none" stroke="black" points="307,-184.67 215,-184.67 215,-148.67 307,-148.67 307,-184.67"/>
<text text-anchor="middle" x="261" y="-162.97" font-family="Times,serif" font-size="14.00">mainmenu</text>
</g>
<!-- splash&#45;&gt;mainmenu -->
<g id="edge2" class="edge">
<title>splash&#45;&gt;mainmenu</title>
<path fill="none" stroke="black" d="M179.04,-166.67C187.22,-166.67 195.87,-166.67 204.35,-166.67"/>
<polygon fill="black" stroke="black" points="204.58,-170.17 214.58,-166.67 204.58,-163.17 204.58,-170.17"/>
</g>
<!-- options -->
<g id="node3" class="node">
<title>options</title>
<polygon fill="none" stroke="black" points="481.5,-292.67 409.5,-292.67 409.5,-256.67 481.5,-256.67 481.5,-292.67"/>
<text text-anchor="middle" x="445.5" y="-270.97" font-family="Times,serif" font-size="14.00">Options</text>
</g>
<!-- options&#45;&gt;mainmenu -->
<g id="edge4" class="edge">
<title>options&#45;&gt;mainmenu</title>
<path fill="none" stroke="black" d="M409.39,-277.85C389,-275.18 363.38,-268.41 343,-256.67 315.86,-241.03 291.46,-213.98 276.69,-193.38"/>
<polygon fill="black" stroke="black" points="279.5,-191.28 270.98,-184.99 273.72,-195.23 279.5,-191.28"/>
</g>
<!-- credits -->
<g id="node4" class="node">
<title>credits</title>
<polygon fill="none" stroke="black" points="480,-238.67 411,-238.67 411,-202.67 480,-202.67 480,-238.67"/>
<text text-anchor="middle" x="445.5" y="-216.97" font-family="Times,serif" font-size="14.00">Credits</text>
</g>
<!-- credits&#45;&gt;mainmenu -->
<g id="edge6" class="edge">
<title>credits&#45;&gt;mainmenu</title>
<path fill="none" stroke="black" d="M410.98,-220.16C391.13,-216.22 365.53,-209.42 343,-202.67 328.94,-198.46 313.65,-193.47 300.17,-188.41"/>
<polygon fill="black" stroke="black" points="301.32,-185.1 290.73,-184.73 298.77,-191.62 301.32,-185.1"/>
</g>
<!-- create_server -->
<g id="node5" class="node">
<title>create_server</title>
<polygon fill="none" stroke="black" points="544.5,-184.67 346.5,-184.67 346.5,-148.67 544.5,-148.67 544.5,-184.67"/>
<text text-anchor="middle" x="445.5" y="-162.97" font-family="Times,serif" font-size="14.00">Create Multiplayer Game</text>
</g>
<!-- game -->
<g id="node8" class="node">
<title>game</title>
<polygon fill="none" stroke="black" points="682,-103.67 584,-103.67 584,-67.67 682,-67.67 682,-103.67"/>
<text text-anchor="middle" x="633" y="-81.97" font-family="Times,serif" font-size="14.00">Main Menu</text>
</g>
<!-- create_server&#45;&gt;game -->
<g id="edge13" class="edge">
<title>create_server&#45;&gt;game</title>
<path fill="none" stroke="black" d="M524.4,-148.63C532.49,-145.97 540.49,-142.98 548,-139.67 566.03,-131.71 584.61,-120.17 599.7,-109.8"/>
<polygon fill="black" stroke="black" points="601.98,-112.48 608.15,-103.87 597.96,-106.75 601.98,-112.48"/>
</g>
<!-- create_server&#45;&gt;mainmenu -->
<g id="edge8" class="edge">
<title>create_server&#45;&gt;mainmenu</title>
<path fill="none" stroke="black" d="M346.33,-173.4C336.38,-173.35 326.54,-173.2 317.28,-172.93"/>
<polygon fill="black" stroke="black" points="317.23,-169.43 307.11,-172.59 316.99,-176.42 317.23,-169.43"/>
</g>
<!-- join_game -->
<g id="node6" class="node">
<title>join_game</title>
<polygon fill="none" stroke="black" points="534,-130.67 357,-130.67 357,-94.67 534,-94.67 534,-130.67"/>
<text text-anchor="middle" x="445.5" y="-108.97" font-family="Times,serif" font-size="14.00">Join Multiplayer Game</text>
</g>
<!-- join_game&#45;&gt;game -->
<g id="edge14" class="edge">
<title>join_game&#45;&gt;game</title>
<path fill="none" stroke="black" d="M534.09,-99.92C547.64,-97.95 561.33,-95.96 574.01,-94.11"/>
<polygon fill="black" stroke="black" points="574.55,-97.57 583.94,-92.67 573.54,-90.64 574.55,-97.57"/>
</g>
<!-- join_game&#45;&gt;mainmenu -->
<g id="edge10" class="edge">
<title>join_game&#45;&gt;mainmenu</title>
<path fill="none" stroke="black" d="M404.81,-130.78C386,-136.49 363.26,-142.6 343,-148.67 334.54,-151.2 325.63,-154.02 316.94,-156.74"/>
<polygon fill="black" stroke="black" points="315.77,-153.44 307.25,-159.74 317.84,-160.12 315.77,-153.44"/>
</g>
<!-- create_sp_game -->
<g id="node7" class="node">
<title>create_sp_game</title>
<polygon fill="none" stroke="black" points="548,-76.67 343,-76.67 343,-40.67 548,-40.67 548,-76.67"/>
<text text-anchor="middle" x="445.5" y="-54.97" font-family="Times,serif" font-size="14.00">Create Singleplayer Game</text>
</g>
<!-- create_sp_game&#45;&gt;game -->
<g id="edge15" class="edge">
<title>create_sp_game&#45;&gt;game</title>
<path fill="none" stroke="black" d="M548.2,-73.47C556.87,-74.73 565.43,-75.98 573.57,-77.17"/>
<polygon fill="black" stroke="black" points="573.25,-80.66 583.65,-78.63 574.26,-73.73 573.25,-80.66"/>
</g>
<!-- create_sp_game&#45;&gt;mainmenu -->
<g id="edge12" class="edge">
<title>create_sp_game&#45;&gt;mainmenu</title>
<path fill="none" stroke="black" d="M388.17,-76.73C372.87,-81.1 356.75,-86.75 343,-94.67 322.16,-106.68 302.94,-125.41 288.45,-140.89"/>
<polygon fill="black" stroke="black" points="285.52,-138.91 281.32,-148.64 290.67,-143.65 285.52,-138.91"/>
</g>
<!-- pause_menu -->
<g id="node9" class="node">
<title>pause_menu</title>
<polygon fill="none" stroke="black" points="822,-103.67 718,-103.67 718,-67.67 822,-67.67 822,-103.67"/>
<text text-anchor="middle" x="770" y="-81.97" font-family="Times,serif" font-size="14.00">Pause Menu</text>
</g>
<!-- game&#45;&gt;pause_menu -->
<g id="edge16" class="edge">
<title>game&#45;&gt;pause_menu</title>
<path fill="none" stroke="black" d="M682.36,-79.17C690.53,-78.95 699.12,-78.88 707.57,-78.94"/>
<polygon fill="black" stroke="black" points="707.74,-82.45 717.79,-79.1 707.84,-75.45 707.74,-82.45"/>
</g>
<!-- pause_menu&#45;&gt;game -->
<g id="edge17" class="edge">
<title>pause_menu&#45;&gt;game</title>
<path fill="none" stroke="black" d="M717.79,-92.24C709.52,-92.43 700.92,-92.47 692.5,-92.37"/>
<polygon fill="black" stroke="black" points="692.42,-88.86 682.36,-92.17 692.29,-95.86 692.42,-88.86"/>
</g>
<!-- options_ingame -->
<g id="node10" class="node">
<title>options_ingame</title>
<polygon fill="none" stroke="black" points="998,-103.67 858,-103.67 858,-67.67 998,-67.67 998,-103.67"/>
<text text-anchor="middle" x="928" y="-81.97" font-family="Times,serif" font-size="14.00">Options (Ingame)</text>
</g>
<!-- pause_menu&#45;&gt;options_ingame -->
<g id="edge19" class="edge">
<title>pause_menu&#45;&gt;options_ingame</title>
<path fill="none" stroke="black" d="M822.08,-79.29C830.32,-79.06 839.01,-78.93 847.73,-78.92"/>
<polygon fill="black" stroke="black" points="847.93,-82.42 857.95,-78.96 847.96,-75.42 847.93,-82.42"/>
</g>
<!-- pause_menu&#45;&gt;mainmenu -->
<g id="edge18" class="edge">
<title>pause_menu&#45;&gt;mainmenu</title>
<path fill="none" stroke="black" d="M733.38,-67.55C656.51,-31.2 471.61,41.15 343,-31.67 302.65,-54.52 280.21,-106.36 269.66,-138.75"/>
<polygon fill="black" stroke="black" points="266.25,-137.93 266.64,-148.51 272.94,-139.99 266.25,-137.93"/>
</g>
<!-- options_ingame&#45;&gt;pause_menu -->
<g id="edge20" class="edge">
<title>options_ingame&#45;&gt;pause_menu</title>
<path fill="none" stroke="black" d="M857.95,-92.38C849.38,-92.46 840.66,-92.42 832.21,-92.28"/>
<polygon fill="black" stroke="black" points="832.16,-88.78 822.08,-92.05 832,-95.78 832.16,-88.78"/>
</g>
<!-- mainmenu&#45;&gt;options -->
<g id="edge3" class="edge">
<title>mainmenu&#45;&gt;options</title>
<path fill="none" stroke="black" d="M281.32,-184.7C296.29,-201.19 318.53,-224.57 343,-238.67 360.2,-248.58 381.12,-254.94 399.49,-259.68"/>
<polygon fill="black" stroke="black" points="398.84,-263.12 409.39,-262.15 400.54,-256.33 398.84,-263.12"/>
</g>
<!-- mainmenu&#45;&gt;credits -->
<g id="edge5" class="edge">
<title>mainmenu&#45;&gt;credits</title>
<path fill="none" stroke="black" d="M307.25,-173.6C318.86,-177.16 331.36,-181.18 343,-184.67 362.01,-190.36 383.21,-196.09 401.29,-201.5"/>
<polygon fill="black" stroke="black" points="400.4,-204.88 410.98,-204.46 402.44,-198.19 400.4,-204.88"/>
</g>
<!-- mainmenu&#45;&gt;create_server -->
<g id="edge7" class="edge">
<title>mainmenu&#45;&gt;create_server</title>
<path fill="none" stroke="black" d="M307.11,-160.75C316.14,-160.4 325.98,-160.16 336.11,-160.03"/>
<polygon fill="black" stroke="black" points="336.36,-163.53 346.33,-159.94 336.3,-156.53 336.36,-163.53"/>
</g>
<!-- mainmenu&#45;&gt;join_game -->
<g id="edge9" class="edge">
<title>mainmenu&#45;&gt;join_game</title>
<path fill="none" stroke="black" d="M290.73,-148.61C306.15,-142.34 325.53,-135.9 343,-130.67 344.42,-130.25 345.85,-129.82 347.29,-129.4"/>
<polygon fill="black" stroke="black" points="348.29,-132.75 356.93,-126.61 346.35,-126.03 348.29,-132.75"/>
</g>
<!-- mainmenu&#45;&gt;create_sp_game -->
<g id="edge11" class="edge">
<title>mainmenu&#45;&gt;create_sp_game</title>
<path fill="none" stroke="black" d="M270.98,-148.35C283.27,-129.3 306.96,-100.58 334.73,-81.87"/>
<polygon fill="black" stroke="black" points="336.85,-84.67 343.47,-76.4 333.14,-78.73 336.85,-84.67"/>
</g>
</g>
</svg>
