<?xml version="1.0" encoding="UTF-8" standalone="no"?>
<!DOCTYPE svg PUBLIC "-//W3C//DTD SVG 1.1//EN"
 "http://www.w3.org/Graphics/SVG/1.1/DTD/svg11.dtd">
<!-- Generated by graphviz version 2.44.1 (0)
 -->
<!-- Pages: 1 -->
<svg width="1002pt" height="299pt"
 viewBox="0.00 0.00 1002.00 299.23" xmlns="http://www.w3.org/2000/svg" xmlns:xlink="http://www.w3.org/1999/xlink">
<g id="graph0" class="graph" transform="scale(1 1) rotate(0) translate(4 295.23)">
<polygon fill="white" stroke="transparent" points="-4,4 -4,-295.23 998,-295.23 998,4 -4,4"/>
<!-- init -->
<g id="node1" class="node">
<title>init</title>
</g>
<!-- splash -->
<g id="node2" class="node">
<title>splash</title>
<polygon fill="none" stroke="black" points="179,-183.23 90,-183.23 90,-147.23 179,-147.23 179,-183.23"/>
<text text-anchor="middle" x="134.5" y="-161.53" font-family="Times,serif" font-size="14.00">[Z] Splash</text>
</g>
<!-- init&#45;&gt;splash -->
<g id="edge1" class="edge">
<title>init&#45;&gt;splash</title>
<path fill="none" stroke="black" d="M54.08,-165.23C61.88,-165.23 70.74,-165.23 79.64,-165.23"/>
<polygon fill="black" stroke="black" points="79.66,-168.73 89.66,-165.23 79.66,-161.73 79.66,-168.73"/>
</g>
<!-- mainmenu -->
<g id="node11" class="node">
<title>mainmenu</title>
<polygon fill="none" stroke="black" points="313,-183.23 215,-183.23 215,-147.23 313,-147.23 313,-183.23"/>
<text text-anchor="middle" x="264" y="-161.53" font-family="Times,serif" font-size="14.00">Main Menu</text>
</g>
<!-- splash&#45;&gt;mainmenu -->
<g id="edge2" class="edge">
<title>splash&#45;&gt;mainmenu</title>
<path fill="none" stroke="black" d="M179.02,-165.23C187.32,-165.23 196.12,-165.23 204.79,-165.23"/>
<polygon fill="black" stroke="black" points="204.87,-168.73 214.87,-165.23 204.87,-161.73 204.87,-168.73"/>
</g>
<!-- options -->
<g id="node3" class="node">
<title>options</title>
<polygon fill="none" stroke="black" points="487.5,-291.23 415.5,-291.23 415.5,-255.23 487.5,-255.23 487.5,-291.23"/>
<text text-anchor="middle" x="451.5" y="-269.53" font-family="Times,serif" font-size="14.00">Options</text>
</g>
<!-- options&#45;&gt;mainmenu -->
<g id="edge4" class="edge">
<title>options&#45;&gt;mainmenu</title>
<path fill="none" stroke="black" d="M415.47,-276.27C395.1,-273.55 369.49,-266.78 349,-255.23 321.21,-239.55 295.82,-212.5 280.39,-191.91"/>
<polygon fill="black" stroke="black" points="283.07,-189.65 274.42,-183.54 277.38,-193.71 283.07,-189.65"/>
</g>
<!-- credits -->
<g id="node4" class="node">
<title>credits</title>
<polygon fill="none" stroke="black" points="486,-237.23 417,-237.23 417,-201.23 486,-201.23 486,-237.23"/>
<text text-anchor="middle" x="451.5" y="-215.53" font-family="Times,serif" font-size="14.00">Credits</text>
</g>
<!-- credits&#45;&gt;mainmenu -->
<g id="edge6" class="edge">
<title>credits&#45;&gt;mainmenu</title>
<path fill="none" stroke="black" d="M416.55,-218.53C396.77,-214.55 371.4,-207.8 349,-201.23 334.57,-196.99 318.86,-192.03 304.96,-187.02"/>
<polygon fill="black" stroke="black" points="305.8,-183.6 295.21,-183.37 303.35,-190.16 305.8,-183.6"/>
</g>
<!-- create_server -->
<g id="node5" class="node">
<title>create_server</title>
<polygon fill="none" stroke="black" points="550.5,-183.23 352.5,-183.23 352.5,-147.23 550.5,-147.23 550.5,-183.23"/>
<text text-anchor="middle" x="451.5" y="-161.53" font-family="Times,serif" font-size="14.00">Create Multiplayer Game</text>
</g>
<!-- game -->
<g id="node8" class="node">
<title>game</title>
<polygon fill="none" stroke="black" points="678,-102.23 590,-102.23 590,-66.23 678,-66.23 678,-102.23"/>
<text text-anchor="middle" x="634" y="-80.53" font-family="Times,serif" font-size="14.00">Gameplay</text>
</g>
<!-- create_server&#45;&gt;game -->
<g id="edge13" class="edge">
<title>create_server&#45;&gt;game</title>
<path fill="none" stroke="black" d="M531.03,-147.22C538.92,-144.56 546.71,-141.57 554,-138.23 571.13,-130.37 588.6,-118.87 602.73,-108.5"/>
<polygon fill="black" stroke="black" points="605.18,-111.04 611.07,-102.24 600.97,-105.45 605.18,-111.04"/>
</g>
<!-- create_server&#45;&gt;mainmenu -->
<g id="edge8" class="edge">
<title>create_server&#45;&gt;mainmenu</title>
<path fill="none" stroke="black" d="M352.46,-171.97C342.57,-171.93 332.76,-171.79 323.48,-171.55"/>
<polygon fill="black" stroke="black" points="323.36,-168.04 313.25,-171.23 323.14,-175.04 323.36,-168.04"/>
</g>
<!-- join_game -->
<g id="node6" class="node">
<title>join_game</title>
<polygon fill="none" stroke="black" points="540,-129.23 363,-129.23 363,-93.23 540,-93.23 540,-129.23"/>
<text text-anchor="middle" x="451.5" y="-107.53" font-family="Times,serif" font-size="14.00">Join Multiplayer Game</text>
</g>
<!-- join_game&#45;&gt;game -->
<g id="edge14" class="edge">
<title>join_game&#45;&gt;game</title>
<path fill="none" stroke="black" d="M540.11,-98.12C553.58,-96.11 567.13,-94.08 579.56,-92.22"/>
<polygon fill="black" stroke="black" points="580.34,-95.64 589.71,-90.7 579.3,-88.72 580.34,-95.64"/>
</g>
<!-- join_game&#45;&gt;mainmenu -->
<g id="edge10" class="edge">
<title>join_game&#45;&gt;mainmenu</title>
<path fill="none" stroke="black" d="M411.33,-129.29C392.43,-135.06 369.47,-141.22 349,-147.23 340.56,-149.7 331.69,-152.43 322.99,-155.06"/>
<polygon fill="black" stroke="black" points="321.86,-151.75 313.29,-157.98 323.87,-158.45 321.86,-151.75"/>
</g>
<!-- create_sp_game -->
<g id="node7" class="node">
<title>create_sp_game</title>
<polygon fill="none" stroke="black" points="554,-75.23 349,-75.23 349,-39.23 554,-39.23 554,-75.23"/>
<text text-anchor="middle" x="451.5" y="-53.53" font-family="Times,serif" font-size="14.00">Create Singleplayer Game</text>
</g>
<!-- create_sp_game&#45;&gt;game -->
<g id="edge15" class="edge">
<title>create_sp_game&#45;&gt;game</title>
<path fill="none" stroke="black" d="M554.09,-72.42C562.89,-73.74 571.53,-75.03 579.69,-76.25"/>
<polygon fill="black" stroke="black" points="579.33,-79.74 589.74,-77.76 580.37,-72.81 579.33,-79.74"/>
</g>
<!-- create_sp_game&#45;&gt;mainmenu -->
<g id="edge12" class="edge">
<title>create_sp_game&#45;&gt;mainmenu</title>
<path fill="none" stroke="black" d="M394.79,-75.3C379.34,-79.69 362.98,-85.34 349,-93.23 327.47,-105.37 307.38,-124.34 292.24,-139.9"/>
<polygon fill="black" stroke="black" points="289.62,-137.58 285.23,-147.22 294.68,-142.42 289.62,-137.58"/>
</g>
<!-- pause_menu -->
<g id="node9" class="node">
<title>pause_menu</title>
<polygon fill="none" stroke="black" points="818,-102.23 714,-102.23 714,-66.23 818,-66.23 818,-102.23"/>
<text text-anchor="middle" x="766" y="-80.53" font-family="Times,serif" font-size="14.00">Pause Menu</text>
</g>
<!-- game&#45;&gt;pause_menu -->
<g id="edge16" class="edge">
<title>game&#45;&gt;pause_menu</title>
<path fill="none" stroke="black" d="M678.29,-77.82C686.46,-77.55 695.16,-77.44 703.76,-77.49"/>
<polygon fill="black" stroke="black" points="703.74,-80.99 713.79,-77.61 703.83,-73.99 703.74,-80.99"/>
</g>
<!-- pause_menu&#45;&gt;game -->
<g id="edge17" class="edge">
<title>pause_menu&#45;&gt;game</title>
<path fill="none" stroke="black" d="M713.79,-90.84C705.44,-91.01 696.77,-91.02 688.36,-90.88"/>
<polygon fill="black" stroke="black" points="688.37,-87.38 678.29,-90.63 688.2,-94.38 688.37,-87.38"/>
</g>
<!-- options_ingame -->
<g id="node10" class="node">
<title>options_ingame</title>
<polygon fill="none" stroke="black" points="994,-102.23 854,-102.23 854,-66.23 994,-66.23 994,-102.23"/>
<text text-anchor="middle" x="924" y="-80.53" font-family="Times,serif" font-size="14.00">Options (Ingame)</text>
</g>
<!-- pause_menu&#45;&gt;options_ingame -->
<g id="edge19" class="edge">
<title>pause_menu&#45;&gt;options_ingame</title>
<path fill="none" stroke="black" d="M818.08,-77.85C826.32,-77.61 835.01,-77.49 843.73,-77.48"/>
<polygon fill="black" stroke="black" points="843.93,-80.98 853.95,-77.52 843.96,-73.98 843.93,-80.98"/>
</g>
<!-- pause_menu&#45;&gt;mainmenu -->
<g id="edge18" class="edge">
<title>pause_menu&#45;&gt;mainmenu</title>
<path fill="none" stroke="black" d="M729.46,-66.11C654.06,-30.44 474.73,39.63 349,-30.23 308.07,-52.97 284.5,-104.85 273.25,-137.27"/>
<polygon fill="black" stroke="black" points="269.84,-136.45 270.03,-147.05 276.48,-138.64 269.84,-136.45"/>
</g>
<!-- options_ingame&#45;&gt;pause_menu -->
<g id="edge20" class="edge">
<title>options_ingame&#45;&gt;pause_menu</title>
<path fill="none" stroke="black" d="M853.95,-90.94C845.38,-91.01 836.66,-90.98 828.21,-90.84"/>
<polygon fill="black" stroke="black" points="828.16,-87.33 818.08,-90.61 828,-94.33 828.16,-87.33"/>
</g>
<!-- mainmenu&#45;&gt;options -->
<g id="edge3" class="edge">
<title>mainmenu&#45;&gt;options</title>
<path fill="none" stroke="black" d="M285.23,-183.24C300.84,-199.72 323.94,-223.09 349,-237.23 366.29,-246.98 387.22,-253.32 405.58,-258.08"/>
<polygon fill="black" stroke="black" points="404.92,-261.52 415.47,-260.57 406.63,-254.73 404.92,-261.52"/>
</g>
<!-- mainmenu&#45;&gt;credits -->
<g id="edge5" class="edge">
<title>mainmenu&#45;&gt;credits</title>
<path fill="none" stroke="black" d="M313.29,-172.48C324.94,-175.94 337.39,-179.82 349,-183.23 367.9,-188.77 388.91,-194.44 406.9,-199.83"/>
<polygon fill="black" stroke="black" points="405.96,-203.2 416.55,-202.78 408.01,-196.51 405.96,-203.2"/>
</g>
<!-- mainmenu&#45;&gt;create_server -->
<g id="edge7" class="edge">
<title>mainmenu&#45;&gt;create_server</title>
<path fill="none" stroke="black" d="M313.25,-159.22C322.35,-158.89 332.2,-158.67 342.3,-158.56"/>
<polygon fill="black" stroke="black" points="342.49,-162.06 352.46,-158.49 342.43,-155.06 342.49,-162.06"/>
</g>
<!-- mainmenu&#45;&gt;join_game -->
<g id="edge9" class="edge">
<title>mainmenu&#45;&gt;join_game</title>
<path fill="none" stroke="black" d="M295.21,-147.08C311.15,-140.87 331.07,-134.49 349,-129.23 350.42,-128.81 351.86,-128.39 353.3,-127.97"/>
<polygon fill="black" stroke="black" points="354.29,-131.33 362.94,-125.22 352.37,-124.6 354.29,-131.33"/>
</g>
<!-- mainmenu&#45;&gt;create_sp_game -->
<g id="edge11" class="edge">
<title>mainmenu&#45;&gt;create_sp_game</title>
<path fill="none" stroke="black" d="M274.42,-146.91C287.34,-127.8 312.21,-98.94 340.88,-80.19"/>
<polygon fill="black" stroke="black" points="342.76,-83.15 349.48,-74.96 339.12,-77.17 342.76,-83.15"/>
</g>
</g>
</svg>
